<?xml version="1.0" encoding="utf-8" ?><svg xmlns="http://www.w3.org/2000/svg" xmlns:xlink="http://www.w3.org/1999/xlink" width="1024" height="1024" viewBox="0 0 1024 1024"><path fill="#090e13" d="M0 0L1024 0L1024 1024L0 1024L0 0Z"/><path fill="#28394a" d="M462.386 500.385C463.474 501.683 468.375 509.862 469.095 511.326C478.666 530.776 480.606 553.224 473.93 573.792C466.864 595.201 451.54 612.901 431.362 622.959C410.828 633.266 387.032 634.958 365.246 627.66C344.741 620.769 327.271 605.053 317.764 585.664C312.891 575.87 309.952 565.229 309.107 554.322C307.961 541.118 308.914 525.091 308.973 511.504L309.028 434.066L308.994 334.663C308.985 320.466 308.109 301.127 308.919 287.743C309.412 279.241 311.08 270.848 313.878 262.805C321.441 241.69 336.989 224.387 357.179 214.619C377.344 204.99 400.53 203.852 421.541 211.461C436.735 216.833 457.584 232.006 464.698 246.729C476.204 266.013 478.423 280.655 478.041 302.641C477.963 307.15 478.422 314.135 477.295 318.323C474.825 327.503 466.087 334.805 459.926 341.985C455.677 346.885 451.668 351.988 447.913 357.276C436.119 373.947 424.908 391.653 415.482 409.737C414.141 412.309 412.803 415.112 411.35 417.602L410.878 418.987C421.177 431.259 433.545 454.256 442.525 468.16C445.955 473.471 460.453 495.674 462.386 500.385Z"/><defs><linearGradient id="gradient_0" gradientUnits="userSpaceOnUse" x1="424.30035" y1="269.69467" x2="449.12753" y2="408.6897"><stop offset="0" stop-color="#0a8a93"/><stop offset="1" stop-color="#00d5d5"/></linearGradient></defs><path fill="url(#gradient_0)" d="M411.35 417.602C387.177 377.958 382.193 325.259 387.826 280.092C388.7 273.08 390.014 261.635 392.42 255.275C392.831 259.742 389.139 268.99 389.347 275.028L390.427 275.758C403.968 276.573 457.777 269.937 468.137 264.285C468.851 263.895 470.663 262.85 471.083 262.154C472.369 260.019 463.848 249.686 464.698 246.729C476.204 266.013 478.423 280.655 478.041 302.641C477.963 307.15 478.422 314.135 477.295 318.323C474.825 327.503 466.087 334.805 459.926 341.985C455.677 346.885 451.668 351.988 447.913 357.276C436.119 373.947 424.908 391.653 415.482 409.737C414.141 412.309 412.803 415.112 411.35 417.602Z"/><path fill="#0e1a26" d="M410.878 418.987C421.177 431.259 433.545 454.256 442.525 468.16C445.955 473.471 460.453 495.674 462.386 500.385C458.853 496.82 455.793 491.061 453.03 486.677C447.968 478.776 442.995 470.818 438.113 462.805C435.129 457.865 430.896 450.27 427.639 445.75C426.72 445.759 424.331 447.145 423.021 447.059C415.386 446.562 407.72 447.789 400.163 447.728C398.125 454.042 396.075 460.428 394.288 466.814C392.529 473.098 391.24 479.467 389.179 485.668C394.37 460.952 400.685 442.122 410.878 418.987Z"/><path fill="#7af0f0" d="M486.262 417.019C490.43 417.58 494.163 416.898 498.068 417.105C501.206 417.938 512.909 419.308 516.512 419.514L519.146 419.678C519.309 419.725 519.472 419.773 519.635 419.82C543.515 423.453 566.716 431.47 588.72 441.296C590.905 442.272 593.574 443.481 595.541 444.806C601.825 447.175 609.148 452.165 614.86 455.765C648.559 477.002 665.196 501.444 687.413 533.356C704.883 558.4 722.465 585.067 739.054 610.797C743.993 618.458 738.621 630.728 729.075 630.534C711.644 631.301 694.215 630.762 676.773 630.958C661.751 630.803 646.131 631.517 631.239 630.897C622.974 631.194 612.425 631.121 604.044 631.017C592.115 630.519 579.506 632.38 567.896 629.134C554.031 625.259 547.464 613.681 540.153 602.503L524.279 578.207L502.923 545.863C499.536 540.695 495.086 534.325 492.18 529.069C488.161 526.211 458.242 475.463 454.706 468.704C454.112 468.23 451.101 463.032 450.395 461.905C443.225 450.471 436.232 434.582 437.253 420.812C437.436 422.318 437.192 421.87 437.916 423.054C440.751 422.62 445.258 418.837 447.729 418.329C455.022 416.831 465.958 417.342 473.484 417.359C477.28 417.06 482.363 417.102 486.262 417.019Z"/><defs><linearGradient id="gradient_1" gradientUnits="userSpaceOnUse" x1="557.28717" y1="476.15613" x2="675.04535" y2="563.52588"><stop offset="0" stop-color="#1c2a3a"/><stop offset="1" stop-color="#00d5d5"/></linearGradient></defs><path fill="url(#gradient_1)" d="M557.179 481.457L556.59 478.884C557.801 476.158 558.496 477.038 560.277 474.917C561.68 473.246 563.721 469.02 565.135 467.533C569.503 462.941 573.094 459.462 576.944 454.334C580.093 450.74 580.738 444.446 583.965 441.214C585.199 439.978 592.735 444.634 595.541 444.806C601.825 447.175 609.148 452.165 614.86 455.765C648.559 477.002 665.196 501.444 687.413 533.356C704.883 558.4 722.465 585.067 739.054 610.797C743.993 618.458 738.621 630.728 729.075 630.534C711.644 631.301 694.215 630.762 676.773 630.958C661.751 630.803 646.131 631.517 631.239 630.897C635.766 630.268 648.974 630.525 654.155 630.512C646.5 619.189 637.412 605.966 630.409 594.333C622.446 582.878 614.535 570.216 606.89 558.454C605.316 554.396 597.173 542.51 594.403 538.254C585.096 523.952 575.026 510.03 566.223 495.369C563.45 490.751 559.931 486.378 557.179 481.457Z"/><path fill="#1adcdc" d="M687.413 533.356C704.883 558.4 722.465 585.067 739.054 610.797C743.993 618.458 738.621 630.728 729.075 630.534C711.644 631.301 694.215 630.762 676.773 630.958C661.751 630.803 646.131 631.517 631.239 630.897C635.766 630.268 648.974 630.525 654.155 630.512C646.5 619.189 637.412 605.966 630.409 594.333L631.692 593.542C634.951 594.463 646.21 594.288 648.955 592.254C663.297 581.608 674.606 565.839 683.222 550.304C685.326 546.51 684.127 539.464 687.673 535.477L687.413 533.356Z"/><defs><linearGradient id="gradient_2" gradientUnits="userSpaceOnUse" x1="498.37454" y1="494.90475" x2="590.74982" y2="478.83456"><stop offset="0" stop-color="#0a7a85"/><stop offset="1" stop-color="#33e3e3"/></linearGradient></defs><path fill="url(#gradient_2)" d="M486.262 417.019C490.43 417.58 494.163 416.898 498.068 417.105C501.206 417.938 512.909 419.308 516.512 419.514L519.146 419.678C519.309 419.725 519.472 419.773 519.635 419.82C543.515 423.453 566.716 431.47 588.72 441.296C590.905 442.272 593.574 443.481 595.541 444.806C592.735 444.634 585.199 439.978 583.965 441.214C580.738 444.446 580.093 450.74 576.944 454.334C573.094 459.462 569.503 462.941 565.135 467.533C563.721 469.02 561.68 473.246 560.277 474.917C558.496 477.038 557.801 476.158 556.59 478.884L557.179 481.457C559.931 486.378 563.45 490.751 566.223 495.369C575.026 510.03 585.096 523.952 594.403 538.254C597.173 542.51 605.316 554.396 606.89 558.454C604 556.996 597.184 549.322 594.226 546.509C590.201 542.681 587.842 540.807 583.617 537.488C564.032 522.101 544.066 515.663 520.757 508.653C515.492 507.069 509.522 504.012 504.013 502.225C500.39 499.633 492.035 496.93 486.945 493.292C478.073 489.613 468.514 480.935 461.46 474.499C459.826 473.008 456.575 469.21 454.706 468.704C454.112 468.23 451.101 463.032 450.395 461.905C443.225 450.471 436.232 434.582 437.253 420.812C437.436 422.318 437.192 421.87 437.916 423.054C440.751 422.62 445.258 418.837 447.729 418.329C455.022 416.831 465.958 417.342 473.484 417.359C477.28 417.06 482.363 417.102 486.262 417.019Z"/><path fill="#28394a" d="M437.253 420.812C437.436 422.318 437.192 421.87 437.916 423.054C440.751 422.62 445.258 418.837 447.729 418.329C455.022 416.831 465.958 417.342 473.484 417.359C477.815 418.512 482.261 418.276 486.755 418.254C486.676 423.548 487.13 428.837 488.111 434.04C489.568 442.165 502.516 494.332 498.568 498.238C495.633 496.93 489.501 493.668 486.945 493.292C478.073 489.613 468.514 480.935 461.46 474.499C459.826 473.008 456.575 469.21 454.706 468.704C454.112 468.23 451.101 463.032 450.395 461.905C443.225 450.471 436.232 434.582 437.253 420.812Z"/><defs><linearGradient id="gradient_3" gradientUnits="userSpaceOnUse" x1="517.48871" y1="421.93259" x2="572.12006" y2="460.49652"><stop offset="0" stop-color="#0a141e"/><stop offset="1" stop-color="#1a2735"/></linearGradient></defs><path fill="url(#gradient_3)" d="M516.512 419.514L519.146 419.678C519.309 419.725 519.472 419.773 519.635 419.82C543.515 423.453 566.716 431.47 588.72 441.296C590.905 442.272 593.574 443.481 595.541 444.806C592.735 444.634 585.199 439.978 583.965 441.214C580.738 444.446 580.093 450.74 576.944 454.334C573.094 459.462 569.503 462.941 565.135 467.533C563.721 469.02 561.68 473.246 560.277 474.917C558.496 477.038 557.801 476.158 556.59 478.884L557.179 481.457C554.36 478.117 547.603 467.508 544.974 463.56C535.323 448.984 525.836 434.301 516.512 419.514Z"/><path fill="#1adcdc" d="M454.706 468.704C456.575 469.21 459.826 473.008 461.46 474.499C468.514 480.935 478.073 489.613 486.945 493.292C492.035 496.93 500.39 499.633 504.013 502.225C497.399 502.689 471.417 484.645 465.909 479.854C463.203 477.542 460.575 475.139 458.032 472.649C467.06 491.295 480.734 509.065 491.596 526.757C492.387 528.045 492.296 527.739 492.18 529.069C488.161 526.211 458.242 475.463 454.706 468.704Z"/><path fill="#1adcdc" d="M529.305 251.539C532.715 243.647 548.621 222.339 554.107 216.134C567.465 201.023 587.231 203.98 606.274 204.002L655.216 204.094L707.254 204.055C715.106 204.041 723.565 203.739 731.26 204.318C737.215 204.767 741.678 213.192 741.247 218.565C740.996 221.697 739.882 223.583 738.298 226.264C734.058 233.235 729.349 240.105 724.838 246.923L701.724 281.996C694.847 292.576 687.881 303.099 680.827 313.563C679.123 316.09 670.635 328.821 668.871 330.102C664.187 337.182 657.304 344.366 651.539 350.615C617.049 387.999 568.818 408.607 518.941 415.32C520.18 417.333 520.436 416.976 520.175 418.764L519.146 419.678L516.512 419.514C512.909 419.308 501.206 417.938 498.068 417.105C494.163 416.898 490.43 417.58 486.262 417.019C482.363 417.102 477.28 417.06 473.484 417.359C465.958 417.342 455.022 416.831 447.729 418.329C445.258 418.837 440.751 422.62 437.916 423.054C437.192 421.87 437.436 422.318 437.253 420.812C439.409 405.232 442.988 394.488 450.823 380.663C452.775 377.218 456.086 373.373 457.806 370.265L458.222 369.503C458.861 354.936 477.775 330.709 486.017 317.958L509.284 282.362C515.65 272.451 522.572 261.081 529.305 251.539Z"/><path fill="#7af0f0" d="M655.216 204.094L707.254 204.055C715.106 204.041 723.565 203.739 731.26 204.318C737.215 204.767 741.678 213.192 741.247 218.565C740.996 221.697 739.882 223.583 738.298 226.264C734.058 233.235 729.349 240.105 724.838 246.923L701.724 281.996C694.847 292.576 687.881 303.099 680.827 313.563C679.123 316.09 670.635 328.821 668.871 330.102L668.429 329.309C671.244 325.533 676.119 320.234 674.419 315.372L673.685 315.684C672.61 315.503 672.383 313.386 672.077 312.359C668.898 301.695 652.688 287.892 645.92 278.653C643.745 275.684 643.47 272.08 640.744 269.305C638.34 266.857 634.525 265.269 631.581 263.488C627.831 261.221 628.366 255.734 625.384 253.329C624.318 254.028 618.834 261.776 617.538 263.486L616.731 263.31C627.322 248.427 637.124 232.371 647.24 217.119C649.912 213.089 652.969 208.331 655.216 204.094Z"/><defs><linearGradient id="gradient_4" gradientUnits="userSpaceOnUse" x1="559.89777" y1="279.53717" x2="618.94177" y2="183.96008"><stop offset="0" stop-color="#1a4458"/><stop offset="1" stop-color="#00d5d5"/></linearGradient></defs><path fill="url(#gradient_4)" d="M529.305 251.539C532.715 243.647 548.621 222.339 554.107 216.134C567.465 201.023 587.231 203.98 606.274 204.002L655.216 204.094C652.969 208.331 649.912 213.089 647.24 217.119C637.124 232.371 627.322 248.427 616.731 263.31C614.37 265.045 611.736 268.055 609.736 270.292C601.256 279.782 592.537 288.531 581.866 295.659C582.455 294.571 582.705 293.416 583.066 292.209C574.118 281.76 539.198 268.547 528.839 256.122C528.008 255.126 529.007 252.722 529.305 251.539Z"/><defs><linearGradient id="gradient_5" gradientUnits="userSpaceOnUse" x1="473.30551" y1="375.72552" x2="557.46619" y2="271.32031"><stop offset="0" stop-color="#0a121c"/><stop offset="1" stop-color="#2d4458"/></linearGradient></defs><path fill="url(#gradient_5)" d="M529.305 251.539C529.007 252.722 528.008 255.126 528.839 256.122C539.198 268.547 574.118 281.76 583.066 292.209C582.705 293.416 582.455 294.571 581.866 295.659C561.721 308.388 548.241 311.036 526.611 318.447C510.395 324.003 478.351 343.977 468.746 357.449C465.801 359.556 460.925 366.562 458.222 369.503C458.861 354.936 477.775 330.709 486.017 317.958L509.284 282.362C515.65 272.451 522.572 261.081 529.305 251.539Z"/><path fill="#7af0f0" d="M468.746 357.449L469.083 358.077C468.043 359.326 462.869 365.066 463.44 365.899C463.839 366.482 465.314 371.874 465.588 372.7C468.36 381.06 474.185 408.814 478.185 416.101C480.12 416.317 485.061 416.403 486.262 417.019C482.363 417.102 477.28 417.06 473.484 417.359C465.958 417.342 455.022 416.831 447.729 418.329C445.258 418.837 440.751 422.62 437.916 423.054C437.192 421.87 437.436 422.318 437.253 420.812C439.409 405.232 442.988 394.488 450.823 380.663C452.775 377.218 456.086 373.373 457.806 370.265L458.222 369.503C460.925 366.562 465.801 359.556 468.746 357.449Z"/><path fill="#28394a" d="M498.068 417.105C505.038 416.662 511.997 416.067 518.941 415.32C520.18 417.333 520.436 416.976 520.175 418.764L519.146 419.678L516.512 419.514C512.909 419.308 501.206 417.938 498.068 417.105Z"/><path fill="#f1f4f7" d="M366.307 724.614C378.563 723.273 385.92 727.974 393.593 736.668L393.716 725.471L406.381 725.491L406.471 793.006L393.525 793.014C393.56 790.9 393.939 784.011 393.113 782.467L392.01 783.33C372.845 805.977 337.145 789.925 338.254 760.583C339.017 740.401 345.768 728.426 366.307 724.614Z"/><path fill="#090e13" d="M370.768 735.133C391.565 734.342 398.725 757.654 389.738 773.272C386.092 779.609 381.059 781.699 374.351 783.245C343.639 783.335 341.912 739.333 370.768 735.133Z"/><path fill="#f1f4f7" d="M580.604 724.635C594.359 723.526 602.709 725.246 611.732 736.48L611.819 725.294C614.628 725.213 617.648 725.263 620.477 725.262L620.426 792.997L611.64 793.011C611.599 789.37 611.796 785.244 611.885 781.568L607.89 786.188C597.464 796.251 579.183 796.517 567.204 789.013C551.318 779.06 548.746 752.338 558.874 737.541C564.188 729.777 571.607 726.258 580.604 724.635Z"/><path fill="#090e13" d="M586.604 731.713C600.317 732.048 610.007 739.782 611.448 753.753C613.227 771.005 606.966 785.287 587.829 786.617C581.456 786.537 575.283 785.603 570.374 781.207C559.783 771.722 558.638 750.284 568.158 739.734C573.453 733.866 579.283 732.274 586.604 731.713Z"/><path fill="#f1f4f7" d="M741.901 724.207C756.031 723.555 769.725 728.921 775.564 742.745C778.353 749.349 778.361 755.953 778.304 763.006C759.138 762.924 739.971 762.956 720.805 763.102C721.063 765.179 721.324 767.052 721.803 769.093C726.364 788.491 750.415 792.202 763.572 779.117C766.265 775.806 767.038 774.026 768.323 770.121L777.456 770.137C776.16 774.523 775.009 777.838 772.282 781.652C762.12 796.076 737.988 798.054 724.501 787.814C706.991 774.521 709.097 737.051 729.488 727.376C734.015 725.228 737.019 724.632 741.901 724.207Z"/><path fill="#090e13" d="M744.757 731.693C753.91 731.817 762.442 735.406 766.794 743.881C768.152 746.525 770.044 752.273 769.172 755.149C767.113 755.935 750.315 755.577 746.75 755.555L720.853 755.526C723.641 740.355 728.596 733.262 744.757 731.693Z"/><path fill="#f1f4f7" d="M283.439 707.691C303.862 705.996 320.504 715.179 328.068 734.444L313.759 734.568C305.209 719.649 287.651 714.786 272.586 723.031C251.634 734.497 254.107 776.699 279.882 781.125C289.479 782.773 296.484 782.013 304.938 776.717C309.22 773.233 311.414 770.637 313.345 765.499L328.168 765.648C319.076 793.868 284.945 801.558 261.34 785.405C252.624 779.44 246.92 767.856 245.584 757.425C242.237 731.292 256.991 710.984 283.439 707.691Z"/><path fill="#f1f4f7" d="M486.038 708.506L494.644 708.538L494.644 746.556C508.046 734.118 520.324 720.838 534.081 708.701C537.375 708.555 541.159 708.699 544.495 708.754C541.974 711.489 539.017 714.03 536.361 716.655C525.491 727.395 514.395 738.099 503.953 749.256C511.861 756.915 520.178 766.094 527.844 774.146C533.633 780.323 539.68 786.615 545.224 792.983L534.068 792.986C525.848 784.549 517.737 776.006 509.736 767.36C505.848 763.213 499.202 755.793 494.953 752.397L494.9 792.893L486.011 792.916L486.038 708.506Z"/><path fill="#f1f4f7" d="M644.639 709.188C647.377 709.107 650.386 709.166 653.148 709.169L653.22 725.393C659.301 725.34 665.383 725.355 671.465 725.437L671.493 733.147C665.781 733.414 658.89 733.267 653.082 733.276L653.062 760.494C653.064 777.21 649.861 785.744 669.625 785.958C670.896 785.855 670.455 785.794 671.688 786.3C672.578 788.253 672.208 790.74 672.119 792.99C666.011 793.004 653.927 794.166 649.451 789.793C642.96 783.451 644.429 768.738 644.48 760.227L644.546 733.166L636.454 733.212L636.455 725.578L644.558 725.556C644.534 720.1 644.561 714.644 644.639 709.188Z"/><path fill="#f1f4f7" d="M424.569 705.602C428.489 705.544 432.56 705.622 436.493 705.642L436.473 793.015L424.544 793.025L424.569 705.602Z"/><path fill="#f1f4f7" d="M453.442 705.552L464.68 705.602C464.465 734.645 465.092 763.885 464.568 792.879C461.855 793.156 456.308 792.995 453.38 792.998L453.442 705.552Z"/><path fill="#f1f4f7" d="M686.93 725.072L695.566 725.078L695.642 792.958L686.972 792.971L686.93 725.072Z"/><path fill="#f1f4f7" d="M688.122 698.59C690.284 698.491 692.568 698.161 694.336 699.655C698.174 702.897 696.943 708.182 693.848 711.43C683.909 713.308 683.412 702.491 688.122 698.59Z"/></svg>